<svg width="103" height="103" viewBox="0 0 103 103" fill="none" xmlns="http://www.w3.org/2000/svg">
<path d="M96.275 51.4888V57.89H102.675V64.29H96.275V70.6913H89.8863V64.29H83.4863V57.89H89.8863V51.4888H83.4863V45.1H89.8863V6.72126H96.275V45.1H102.675V51.4888H96.275ZM89.8863 6.72126V0.321259H77.0863V6.72126H89.8863ZM89.8863 70.6913V77.0775H83.4863V102.668H57.8963V96.2663H45.1088V102.668H19.5175V77.0775H13.1175V70.69L89.8863 70.6913ZM77.0863 77.0775H25.9175V96.2675H38.7062V89.8788H64.2975V96.2675H77.085L77.0863 77.0775ZM77.0863 6.72126H70.6988V13.11H77.0863V6.72126ZM64.2975 51.4888H70.6975V38.7H64.2975V51.4888ZM70.6988 13.11H64.2975V19.51H70.6975L70.6988 13.11ZM64.2975 19.51H57.8963V25.9113H64.2975V19.51ZM45.1088 57.8888V64.2888H57.8963V57.8888H45.1088ZM57.8963 32.2988V25.9113L45.1088 25.91V32.2988H57.8963ZM45.1088 25.91V19.5088H38.7075V25.91H45.1088ZM32.3075 51.4888H38.7075V38.7H32.3075V51.4888ZM38.7075 19.51V13.11H32.3075V19.51H38.7075ZM32.3075 13.11V6.72126H25.9187V13.11H32.3075ZM25.9187 6.72126L25.9175 0.321259H13.1175V6.72126H25.9187ZM19.5175 64.2888V57.8888H13.1175V51.4875H19.5175V45.1H13.1175V6.72126H6.72874V45.1H0.328735V51.4888H6.72874V57.89H0.328735V64.29H6.72874V70.6913L13.1175 70.69V64.29L19.5175 64.2888Z" fill="white"/>
</svg>
